# xmcd
#
# Track frame offsets: 
#        150
#        16002
#        28675
#        47026
#        69936
#        84649
#        98554
#        114756
#        128855
#        141254
#        158283
#        176893
#        193506
#        210416
#        227694
#
# Disc length: 3289 seconds
#
# Revision: 3
# Processed by: cddbd v1.5.2PL0 Copyright (c) Steve Scherf et al.
# Submitted via: ExactAudioCopyFreeDBPlugin 1.0
#
DISCID=b40cd70f
DTITLE=Various Artist - Country Heat 2012
DYEAR=2011
DGENRE=Country
TTITLE0=Blake Shelton - Honey Bee
TTITLE1=Jake Owen - Barefoot Blue Jean Night
TTITLE2=Kenny Chesney feat. Grace Potter - You and Tequila
TTITLE3=Sara Evans - A Little Bit Stronger
TTITLE4=Johnny Reid - You Gave My Heart a Home
TTITLE5=Thompson Square - I Got You
TTITLE6=Kira Isabella - Love Me Like That
TTITLE7=Ryan Laird - I'm Your Man
TTITLE8=Terri Clark - We're Here for a Good Time
TTITLE9=Aaron Pritchett - Light It Up
TTITLE10=Emerson Drive - Let Your Love Speak
TTITLE11=Chris Young - Tomorrow
TTITLE12=Justin Moore - If Heaven Wasn't So Far Away
TTITLE13=Ronnie Dunn - Bleed Red
TTITLE14=Brad Paisley (Duet with Carrie Underwood) - Remind Me
EXTD=
EXTT0=
EXTT1=
EXTT2=
EXTT3=
EXTT4=
EXTT5=
EXTT6=
EXTT7=
EXTT8=
EXTT9=
EXTT10=
EXTT11=
EXTT12=
EXTT13=
EXTT14=
PLAYORDER=
